<svg xmlns="http://www.w3.org/2000/svg" version="1.1" xmlns:xlink="http://www.w3.org/1999/xlink" xmlns:svgjs="http://svgjs.dev/svgjs" width="1500" height="1500" viewBox="0 0 1500 1500"><rect width="1500" height="1500" fill="#ffffff"></rect><g transform="matrix(0.6666666666666666,0,0,0.6666666666666666,250.00007343750008,187.66666666666674)"><svg viewBox="0 0 320 360" data-background-color="#21232b" preserveAspectRatio="xMidYMid meet" height="1687" width="1500" xmlns="http://www.w3.org/2000/svg" xmlns:xlink="http://www.w3.org/1999/xlink"><g id="tight-bounds" transform="matrix(1,0,0,1,0.000023499999997511622,0)"><svg viewBox="0 0 320 360" height="360" width="320"><g><svg></svg></g><g><svg viewBox="0 0 320 360" height="360" width="320"><g><path transform="translate(-74.99272,-51.79039) scale(4.65793,4.65793)" d="M20.6 59.9l0.8 1-0.4-1.3c-0.1-0.6-0.8 0.1-0.4 0.3M21.5 59.3c0.3 0.5 0.6 1 0.6 1.5 0 0.7 0.6 1 1.1 1.2-0.7-0.8-1.1-3-1.7-2.7M59.9 16.9c1.7 0 3.3-0.2 5.1 0.2 4.4 1.1 8.1 3.3 10.6 6.4l7 11.2c0.3 2.8 0.9 5.9 0.8 9.3 0.7 0 0.6-1 1.4-1.2-0.8 2-1.2 4.5-1.4 7.4-0.5-1.6 0-4 0.1-5.3-0.7 1.1-1.1 0.3-1.1-0.2 0.1-0.8-0.3-0.7-0.6-1-1.1-1-1.8-2.1-2.6-3.8 0.5-1.3 0.6-3.2-1-4.2-0.5-0.3-1.1-0.8-1.4-1.6-0.4-1.1-1.1-2.4-0.9-4.1 0.1-0.5-1.5 1.1-2.4 0.4-3.9-2.7-7.8-5.8-12.5-8.4-2.5 0-4.3-0.9-5.2-2-0.8-1-0.2-2.3 1-2.4 0.7 0 1.5-0.2 2.1 0.2 0.1-0.4 0.5-0.9 1-0.9M50 14.6l0.2 0.1c1 0.2 1.5 1.6 2.6 1.1 0 0.7 0.1 1.4-0.1 1.9-0.3 0.8-1.2 0.8-1.9 0.8-6.7-0.4-10.6 2.4-14.7 4.8-1.1 0.7-2.3 1.2-3.2 2.1-4.3 4-9 7.7-10.1 15.1l-0.9 8.2c-0.1 0.9-1.1 1.8-0.9 2.9l0.7 4.9c-0.7-0.7-1.1 0.2-0.9 0.6 0.1 0.3 0.5 1.3 1.1 0.4 0.8 1.5 1.6 4.4 2.7 5.7 3.4 4 7.8 7.6 11.4 11.2 0.9-0.2 1.6-0.2 1.8-0.8 0.3 0.6-0.3 1.2-0.8 1.3 1.6 1 3.4 1.9 5.8 2.1 3.1 0.2 6 0.7 8.7 1.4 1.4-0.4 2.8-0.6 4.3-0.7 0.5 0 0.8-0.8 1.4-1l0.1-1c0.6 0.9 0.5-0.3 0.1-0.9 0.7 0.6 0.9 1.1 1.2 1.5 0-0.3 0.8-1.4 0.8-0.1l0.2-1.3c0.3-0.2 0.4 1.1 0.7 0.2 0.3-0.9 0.9-0.2 1.5-0.5-0.2 0.4-0.1 1.2 0.6 0.7l0.8-0.7c0.5 1.2 1.3 0.7 1.7 0.5 4.4-2.8 8.8-6.1 13-9.4l-0.1 1.3 0.5-1.6c0.5 0.5 0.9 0.1 1.1-0.2 0.6-1 1.4-2 2.7-2.9-1.6 4.3-3.5 7.7-5.9 10.5l-1 1.2c0 0.7-0.2 1.6-1 1.7-0.4 0.1-1.2-0.2-1.8 0.4-0.3 0.4 0.7 1.2-0.1 0.6-0.7-0.5-1.4 0-2.2 0.2-0.6 0.2 0.4 0.8 0.6 1.2 0.2 0.4 0.4 0.8 0.3 1.3l-1.1-1.2c-1.3 0.7-2.1 2-3.2 3-0.5 0.4-0.3 1.1-0.3 1.7-0.7 0-1.5-0.2-1.9 0.2-0.3 0.4-0.2 1-0.2 1.6-1-0.1-1.1-1.6-2-1.3-0.9 0.2-1.9 0.3-2.7 0.8 0.6 1.2-1 0.5-0.8 0.7-1.5-0.9-2.8-1.6-4.4-1-3.4-1.1-7.6-0.6-10.7-0.2 0-0.5 0.1-1-0.1-1.1-0.2 0.5-0.8 0.3-0.7 0.3-1.9-1.3-3.8-2.1-5.8-3.2-1.8 0.2-3.5-0.7-4-1.2-1.4-1.3-3-0.6-4.3-0.9-2.8-0.7-3.8-3.6-4.1-5.6-0.2-1-1-1.4-1.3-1.3-1.3-4.2-3.3-8-4.9-11.9-0.4-1-0.3-2-0.3-3.1 0.5 0.2 1 0.1 0.9-0.6-0.5-3.3-1.7-5.8-3-8.2 0.7-3.4 0.8-7.4 2.4-10.4 1.4-2.7 4-4.1 5.8-6.4 0.6-0.8 0.6-1.9 1.2-2.6 2-2 4-4.1 6.2-5.9 1-0.8 2.2 0 3.7-0.3 0.5-1.8 2.5-3.4 4.4-2.9 0.8 0.2 2.4-1.9 2.9-2.1 0.8-0.3 0.4 0.8 0.4 1.5 1.9-1.5 4.5-2.3 6.9-3.2" fill="#000000" fill-rule="nonzero" stroke="none" stroke-width="1" stroke-linecap="butt" stroke-linejoin="miter" stroke-miterlimit="10" stroke-dasharray="" stroke-dashoffset="0" font-family="none" font-weight="none" font-size="none" text-anchor="none" style="mix-blend-mode: normal" data-fill-palette-color="tertiary"></path></g><g transform="matrix(1,0,0,1,64,108.83521334201953)"><svg viewBox="0 0 192 142.32957331596094" height="142.32957331596094" width="192"><g><svg viewBox="0 0 192 142.32957331596094" height="142.32957331596094" width="192"><g><svg viewBox="0 0 192 142.32957331596094" height="142.32957331596094" width="192"><g transform="matrix(1,0,0,1,0,76.50705428013033)"><svg viewBox="0 0 192 65.82251903583061" height="65.82251903583061" width="192"><g id="textblocktransform"><svg viewBox="0 0 192 65.82251903583061" height="65.82251903583061" width="192" id="textblock"><g><svg viewBox="0 0 192 37.31596091205211" height="37.31596091205211" width="192"><g transform="matrix(1,0,0,1,0,0)"><svg width="192" viewBox="0.45 -33.4 230.23000000000002 44.75" height="37.31596091205211" data-palette-color="#f4f3f0"><path d="M24.35-26.35Q24.1-27.15 22.43-27.78 20.75-28.4 18.05-28.4L18.05-28.4Q15.1-28.4 13.45-26.75 11.8-25.1 11.8-22.6L11.8-22.6Q11.8-21.05 12.93-20.23 14.05-19.4 16.4-18.4L16.4-18.4 18.2-17.65 19.7-16.95Q22.4-15.75 23.98-14.78 25.55-13.8 26.65-12.1 27.75-10.4 27.75-7.75L27.75-7.75Q27.75-4.9 25.88-2.83 24-0.75 20.65 0.33 17.3 1.4 12.85 1.4L12.85 1.4Q9.55 1.4 6.68 0.38 3.8-0.65 2.13-2.2 0.45-3.75 0.45-5.25L0.45-5.25Q0.45-6.7 1.7-7.63 2.95-8.55 5.25-8.9L5.25-8.9Q5.5-7.45 6.95-6.3 8.4-5.15 10.33-4.48 12.25-3.8 13.7-3.8L13.7-3.8Q16.35-3.8 18.43-4.85 20.5-5.9 20.5-7.75L20.5-7.75Q20.5-9.3 19.03-10.33 17.55-11.35 14.6-12.55L14.6-12.55 11.95-13.75Q8.7-15.35 6.8-17.35 4.9-19.35 4.9-22.65L4.9-22.65Q4.9-26.3 6.95-28.58 9-30.85 11.93-31.85 14.85-32.85 17.65-32.85L17.65-32.85Q22.1-32.85 24.98-31.7 27.85-30.55 29.15-28.8 30.45-27.05 30.45-25.2L30.45-25.2Q30.45-24.15 29.93-22.65 29.4-21.15 28.38-20.05 27.35-18.95 25.9-18.95L25.9-18.95Q23.4-18.95 23.4-21.55L23.4-21.55Q23.5-22.35 23.85-24.18 24.2-26 24.35-26.35L24.35-26.35ZM42.9-18.1L39.75-5.5Q39.75-4.35 40.35-3.68 40.95-3 42.05-3L42.05-3Q43.55-3 44.52-3.88 45.5-4.75 46.6-6.35L46.6-6.35Q47.4-7.5 47.9-8 48.4-8.5 49.05-8.5L49.05-8.5Q50.35-8.5 50.9-8.18 51.45-7.85 51.45-6.85L51.45-6.85Q51.45-6.4 51.35-5.78 51.25-5.15 51.1-4.85L51.1-4.85Q49.9-2.3 47.17-0.45 44.45 1.4 41 1.4L41 1.4Q37.55 1.4 35.8-0.28 34.05-1.95 34.05-5.05L34.05-5.05Q34.05-5.5 34.5-7.4 34.95-9.3 35.65-11.95L35.65-11.95 37.05-17.65 34-17.4Q33.4-17.4 33.1-17.85 32.8-18.3 32.8-18.95L32.8-18.95Q32.8-20.2 33.7-21.45L33.7-21.45Q33.8-21.6 34.7-21.75 35.6-21.9 36.9-22.05L36.9-22.05 38.25-22.2 39.95-29.5Q40.45-30.8 41.47-31.53 42.5-32.25 43.4-32.25L43.4-32.25Q44.4-32.25 45.1-31.65 45.8-31.05 45.85-30.25L45.85-30.25 44.05-22.75Q46-23 47.67-23.18 49.35-23.35 50.3-23.35L50.3-23.35Q52.2-23.35 52.2-21.15L52.2-21.15Q52.2-20.3 51.47-19.63 50.75-18.95 49.9-18.8L49.9-18.8 42.9-18.1ZM74.2-0.15Q74 0.7 73.3 1.03 72.59 1.35 71.45 1.35L71.45 1.35Q68 1.35 68-0.2L68-0.2 68.3-2.1Q66.9-1.05 65 0 63.1 1.05 61.85 1.05L61.85 1.05Q54.45 1.05 54.45-3.8L54.45-3.8Q54.45-12.05 59.4-21.7L59.4-21.7Q60-22.85 60.67-23.35 61.35-23.85 63-23.85L63-23.85Q64.75-23.85 65.62-23.38 66.5-22.9 66.5-22.25L66.5-22.25Q66.5-22.1 65.95-21.35L65.95-21.35Q65.4-20.7 65-20.05L65-20.05Q60.3-12.2 60.3-4.75L60.3-4.75Q60.3-4.1 60.8-3.6 61.3-3.1 61.7-3.1L61.7-3.1Q62.8-3.1 65.42-4.15 68.05-5.2 69.45-6.3L69.45-6.3 70.45-10.35Q72.25-17.6 72.7-19.25L72.7-19.25Q73.25-21.25 74.12-22.53 75-23.8 76.9-23.8L76.9-23.8Q79.55-23.8 79.55-22.2L79.55-22.2Q79.55-21.95 79.42-21.58 79.3-21.2 79.25-20.95L79.25-20.95 77.25-12.85Q74.84-3.2 74.2-0.15L74.2-0.15ZM86.49 11.35Q84.19 11.35 82.17 10.35 80.14 9.35 78.77 7.78 77.39 6.2 76.79 4.6L76.79 4.6Q76.84 3.7 77.67 2.83 78.49 1.95 80.54 1.95L80.54 1.95Q81.19 1.95 81.67 2.45 82.14 2.95 82.74 4.05L82.74 4.05Q83.54 5.55 84.42 6.38 85.29 7.2 86.84 7.2L86.84 7.2Q88.59 7.2 90.22 5.83 91.84 4.45 93.02 2.1 94.19-0.25 94.64-3.1L94.64-3.1Q93.54-1.6 92.12-0.8 90.69 0 89.44 0L89.44 0Q85.44 0 83.12-1.78 80.79-3.55 80.79-8.1L80.79-8.1Q80.79-12.2 83.07-15.75 85.34-19.3 89.14-21.4 92.94-23.5 97.29-23.5L97.29-23.5Q100.14-23.5 101.52-22.35 102.89-21.2 103.19-19.45L103.19-19.45Q104.04-19.05 104.09-18.65L104.09-18.65Q104.09-18.5 103.89-17.6L103.89-17.6Q102.94-13.5 99.89-1.4L99.89-1.4 99.34 0.8Q98.09 5.65 94.57 8.5 91.04 11.35 86.49 11.35L86.49 11.35ZM97.79-18.35Q97.39-19.05 97.02-19.25 96.64-19.45 95.89-19.45L95.89-19.45Q93.54-19.45 91.34-17.93 89.14-16.4 87.79-13.98 86.44-11.55 86.44-9L86.44-9Q86.44-7.15 87.12-5.8 87.79-4.45 89.29-4.25L89.29-4.25Q91.29-4.6 93.07-6.05 94.84-7.5 95.49-9.8L95.49-9.8 97.79-18.35ZM126.24-6.35Q128.19-5.5 128.19-4.05L128.19-4.05Q128.19-3.15 127.29-2.3 126.39-1.45 125.24-1.1L125.24-1.1Q122.49-0.8 121.34-0.75L121.34-0.75Q114.64-0.2 111.89 0.3L111.89 0.3Q111.44 0.6 109.99 0.6L109.99 0.6Q108.59 0.6 107.52-0.7 106.44-2 106.44-3.4L106.44-3.4Q106.44-3.95 106.59-4.45L106.59-4.45 112.99-29.75Q113.54-31.95 114.17-32.68 114.79-33.4 116.44-33.4L116.44-33.4Q117.79-33.4 118.77-33.1 119.74-32.8 119.79-32.2L119.79-32.2Q119.79-30.8 113.34-5L113.34-5Q117.74-5.75 124.54-6.2L124.54-6.2 126.24-6.35ZM148.49-2.6Q148.59-1.3 148.84-0.25L148.84-0.25Q148.74 0.05 147.96 0.35 147.19 0.65 146.64 0.65L146.64 0.65Q144.84 0.65 144.06 0.13 143.29-0.4 143.29-1.45L143.29-1.45Q143.29-2.45 143.49-3.45L143.49-3.45Q142.39-1.95 140.26-0.98 138.14 0 136.84 0L136.84 0Q133.49 0 131.26-1.95 129.04-3.9 129.04-8.2L129.04-8.2Q129.04-12.25 130.96-15.83 132.89-19.4 136.29-21.58 139.69-23.75 143.84-23.75L143.84-23.75Q144.64-23.75 145.94-23.33 147.24-22.9 148.56-21.88 149.89-20.85 150.79-19.25L150.79-19.25Q151.19-19.25 151.74-18.85 152.29-18.45 152.29-18.05L152.29-18.05Q152.29-17.6 152.14-17.15L152.14-17.15 148.49-2.6ZM146.24-16.6Q145.94-17.7 145.06-18.45 144.19-19.2 143.49-19.2L143.49-19.2Q141.19-19.2 139.16-17.57 137.14-15.95 135.89-13.55 134.64-11.15 134.64-9L134.64-9Q134.64-6.9 135.14-5.55 135.64-4.2 137.09-4.2L137.09-4.2Q138.34-4.2 139.96-4.95 141.59-5.7 142.86-6.98 144.14-8.25 144.54-9.65L144.54-9.65 146.24-16.6ZM176.04-24.5Q177.64-24.5 178.09-23.75 178.54-23 178.54-21.9L178.54-21.9Q178.54-21.15 178.34-20.88 178.14-20.6 177.54-20.25L177.54-20.25Q176.64-19.65 175.89-19.05L175.89-19.05Q174.89-18.15 168.94-11.45L168.94-11.45Q171.19-7.4 173.19-4.15L173.19-4.15Q174.14-2.65 174.14-1.4L174.14-1.4Q174.14-0.7 173.39-0.15L173.39-0.15Q172.79 0.3 171.69 0.3L171.69 0.3Q170.59 0.3 168.84-1.75L168.84-1.75Q167.34-3.6 165.14-7.2L165.14-7.2Q159.24-0.55 157.89 0.4L157.89 0.4Q157.04 1 155.94 1L155.94 1Q155.29 1 154.49 0.23 153.69-0.55 153.69-1.25L153.69-1.25Q153.69-1.7 153.74-1.95L153.74-1.95 154.74-2.85Q155.64-3.65 162.69-11.55L162.69-11.55Q161.09-14.65 160.09-17.32 159.09-20 159.09-21.6L159.09-21.6Q159.09-23.05 159.99-23.55 160.89-24.05 162.64-24.05L162.64-24.05Q163.49-24.05 164.34-23.63 165.19-23.2 165.19-22.5L165.19-22.5 165.14-21.75Q165.14-19.6 166.64-16.15L166.64-16.15Q170.09-20.2 172.46-22.35 174.84-24.5 176.04-24.5L176.04-24.5ZM189.13 1.05Q184.23 1.05 181.98-0.9 179.73-2.85 179.73-6.1L179.73-6.1Q179.73-10.85 182.11-14.9 184.48-18.95 188.46-21.33 192.43-23.7 197.03-23.7L197.03-23.7Q199.83-23.7 201.73-22.13 203.63-20.55 203.63-17.5L203.63-17.5Q203.63-15.75 202.51-14.63 201.38-13.5 199.28-12.63 197.18-11.75 192.48-10.15L192.48-10.15Q188.23-8.75 185.58-7.8L185.58-7.8Q185.38-7.05 185.38-6.25L185.38-6.25Q185.38-4.85 186.56-4.1 187.73-3.35 189.88-3.35L189.88-3.35Q191.23-3.35 192.98-3.9 194.73-4.45 195.18-5.3L195.18-5.3Q196.88-8.4 198.28-8.4L198.28-8.4Q200.33-8.4 201.06-7.63 201.78-6.85 201.83-5.9L201.83-5.9Q201.23-4.3 199.48-2.68 197.73-1.05 195.03 0 192.33 1.05 189.13 1.05L189.13 1.05ZM186.98-12.4Q191.93-14 195.13-15.38 198.33-16.75 198.33-18.1L198.33-18.1Q198.33-18.7 197.68-19.07 197.03-19.45 196.28-19.45L196.28-19.45Q194.78-19.45 192.86-18.3 190.93-17.15 189.28-15.5 187.63-13.85 186.98-12.4L186.98-12.4ZM208.88-22.85Q208.73-23 208.73-23.2L208.73-23.2Q208.73-23.7 209.83-24.03 210.93-24.35 212.88-24.35L212.88-24.35Q214.68-24.35 215.53-23.43 216.38-22.5 216.53-21.2L216.53-21.2 215.63-17.95Q216.68-19.4 218.58-20.73 220.48-22.05 222.43-22.85 224.38-23.65 225.63-23.65L225.63-23.65Q228.28-23.65 229.48-22.68 230.68-21.7 230.68-19.6L230.68-19.6Q227.73-11.9 226.78-3L226.78-3 227.48-0.55Q226.88 0.6 225.81 1.28 224.73 1.95 222.68 1.95L222.68 1.95Q221.48 1.95 220.93 1.15 220.38 0.35 220.38-0.85L220.38-0.85Q220.38-4.2 221.36-8.22 222.33-12.25 223.63-16.45L223.63-16.45Q224.13-18.05 224.13-18.1L224.13-18.1Q224.13-18.8 223.33-18.8L223.33-18.8Q222.23-18.8 220.01-17.25 217.78-15.7 215.43-12.03 213.08-8.35 211.63-2.4L211.63-2.4Q211.53-2.1 211.38-1.3 211.23-0.5 210.58-0.18 209.93 0.15 208.48 0.15L208.48 0.15Q206.83 0.15 206.06-0.2 205.28-0.55 205.28-1.7L205.28-1.7Q205.43-2.4 205.73-3.4L205.73-3.4Q208.63-15.05 210.18-21.35L210.18-21.35 208.88-22.85Z" opacity="1" transform="matrix(1,0,0,1,0,0)" fill="#000000" class="wordmark-text-0" data-fill-palette-color="primary" id="text-0"></path></svg></g></svg></g><g transform="matrix(1,0,0,1,0,42.761255192182404)"><svg viewBox="0 0 192 23.061263843648206" height="23.061263843648206" width="192"><g transform="matrix(1,0,0,1,0,0)"><svg width="192" viewBox="2.5 -37 489.13 58.75" height="23.061263843648206" data-palette-color="#f4f3f0"><path d="M7.8-31.65Q7.85-31.6 6.55-32.75L6.55-32.75Q5.65-33.55 5.2-33.9L5.2-33.9Q5.4-35.25 6.2-35.8 7-36.35 8.3-36.65L8.3-36.65Q9.65-37 11.2-37L11.2-37Q12.7-37 14.25-36.7L14.25-36.7Q18.7-35.9 22.1-34.85 25.5-33.8 28.45-31.9L28.45-31.9Q30.5-30.65 31.9-28.95L31.9-28.95Q33.95-26.3 33.95-23.55L33.95-23.55Q33.95-21.2 32.4-18.7L32.4-18.7Q26.5-9.35 20.25-3.95L20.25-3.95Q16.45-0.6 11.85 1.55L11.85 1.55Q10.15 2.4 8.3 2.4L8.3 2.4Q6.1 2.4 4.05 1.15L4.05 1.15Q3.3 0.65 2.9 0.13 2.5-0.4 2.5-1.1L2.5-1.1 2.55-1.55 2.9-4.15Q3.5-8.75 4-11L4-11 4.25-12.1Q5.75-18.6 6.5-22.58 7.25-26.55 7.6-30.75L7.6-30.75 7.8-31.65ZM14.4-32.25Q13.8-32.3 12.8-32.15L12.8-32.15 11.7-32Q12.9-31 13.45-30.25 14-29.5 14-28.65L14-28.65Q14-28.45 13.9-27.95L13.9-27.95Q13.25-25.05 12.15-20.8L12.15-20.8 10.35-13.6Q9.15-8.7 8.25-4.5L8.25-4.5Q8.1-3.95 8.08-3.28 8.05-2.6 8.05-2.3L8.05-2.3Q8.5-2.1 8.55-2.1L8.55-2.1 9.2-2.35Q16.7-6 22-12.55L22-12.55Q24.15-15.3 25.63-17.75 27.1-20.2 27.85-22.9L27.85-22.9Q28.05-23.55 28.05-24.45L28.05-24.45Q28.05-26 27.28-27.25 26.5-28.5 25.15-29.15L25.15-29.15Q20.15-31.4 14.4-32.25L14.4-32.25ZM47.96-23.3Q47.86-23 47.23-22.65 46.61-22.3 46.21-22L46.21-22 44.81-22.75Q42.76-23.85 42.01-24.5L42.01-24.5Q41.61-24.8 41.61-25.25L41.61-25.25Q41.61-25.55 41.83-25.78 42.06-26 42.51-26L42.51-26Q44.46-26 47.26-25L47.26-25Q47.56-24.95 47.81-24.33 48.06-23.7 47.96-23.3L47.96-23.3ZM43.46-14Q43.61-14.65 43.66-14.95 43.71-15.25 43.71-15.6L43.71-15.6Q43.71-16.3 44.13-16.7 44.56-17.1 45.76-17.1L45.76-17.1Q47.16-17.1 48.23-16.23 49.31-15.35 49.56-13.95L49.56-13.95Q49.71-13.25 49.76-12.4 49.81-11.55 49.81-11.3L49.81-11.3 50.51-2.75Q50.66-1.4 50.13-0.68 49.61 0.05 48.16 0.05L48.16 0.05Q46.91 0.05 46.03-0.65 45.16-1.35 44.96-2.45L44.96-2.45 43.66-13.05 43.46-14ZM58.27-18.65Q57.92-19.05 57.79-19.5 57.67-19.95 57.57-20.75L57.57-20.75Q58.02-21.8 59.22-21.8L59.22-21.8Q59.82-21.7 60.07-21.7L60.07-21.7Q61.07-21.7 61.32-22.3 61.57-22.9 61.57-23.7 61.57-24.5 61.57-24.95L61.57-24.95 61.72-27.95Q61.77-28.95 61.84-30.43 61.92-31.9 62.02-33.85L62.02-33.85Q62.07-34.9 62.54-35.4 63.02-35.9 63.87-35.9L63.87-35.9Q64.47-35.9 64.82-35.8L64.82-35.8Q66.87-35.35 67.57-34.5 68.27-33.65 68.52-31.95L68.52-31.95Q68.57-31.6 68.42-30.5L68.42-30.5 67.52-22.7Q67.47-22.4 67.37-21.98 67.27-21.55 67.27-21.35L67.27-21.35Q67.27-20.9 67.77-20.75 68.27-20.6 69.62-20.65L69.62-20.65Q71.92-21.15 73.12-21.3L73.12-21.3Q73.37-21.35 73.92-21.35L73.92-21.35Q74.52-21.35 74.72-21.2L74.72-21.2Q74.92-21.1 75.04-20.63 75.17-20.15 75.17-19.55L75.17-19.55Q75.17-19 75.04-18.55 74.92-18.1 74.72-18.05L74.72-18.05Q73.37-17.65 71.52-17.4L71.52-17.4Q69.32-17 68.27-16.7L68.27-16.7Q67.72-16.55 67.17-15.95 66.62-15.35 66.57-14.85L66.57-14.85Q66.47-12.4 66.42-9.85L66.42-9.85Q66.37-7.9 66.57-5.95L66.57-5.95Q66.72-4.3 67.22-3.58 67.72-2.85 68.72-2.85L68.72-2.85Q69.52-2.85 71.02-3.4L71.02-3.4Q71.82-3.75 72.42-3.75L72.42-3.75Q73.37-3.75 73.77-2.7L73.77-2.7Q73.92-2.35 73.92-2L73.92-2Q73.92-1.35 73.44-0.95 72.97-0.55 72.17-0.25L72.17-0.25Q70.67 0.3 69.12 0.35L69.12 0.35Q67.02 0.35 65.17-0.68 63.32-1.7 62.24-3.55 61.17-5.4 61.32-7.8L61.32-7.8Q61.37-8.75 61.37-10.8L61.37-10.8Q61.37-14.05 61.12-17.4L61.12-17.4Q61.07-17.7 60.77-17.82 60.47-17.95 59.77-18.1L59.77-18.1Q58.62-18.3 58.27-18.65L58.27-18.65ZM81.08-18.65Q80.73-19.05 80.6-19.5 80.48-19.95 80.38-20.75L80.38-20.75Q80.83-21.8 82.03-21.8L82.03-21.8Q82.63-21.7 82.88-21.7L82.88-21.7Q83.88-21.7 84.13-22.3 84.38-22.9 84.38-23.7 84.38-24.5 84.38-24.95L84.38-24.95 84.53-27.95Q84.58-28.95 84.65-30.43 84.73-31.9 84.83-33.85L84.83-33.85Q84.88-34.9 85.35-35.4 85.83-35.9 86.68-35.9L86.68-35.9Q87.28-35.9 87.63-35.8L87.63-35.8Q89.68-35.35 90.38-34.5 91.08-33.65 91.33-31.95L91.33-31.95Q91.38-31.6 91.23-30.5L91.23-30.5 90.33-22.7Q90.28-22.4 90.18-21.98 90.08-21.55 90.08-21.35L90.08-21.35Q90.08-20.9 90.58-20.75 91.08-20.6 92.43-20.65L92.43-20.65Q94.73-21.15 95.93-21.3L95.93-21.3Q96.18-21.35 96.73-21.35L96.73-21.35Q97.33-21.35 97.53-21.2L97.53-21.2Q97.73-21.1 97.85-20.63 97.98-20.15 97.98-19.55L97.98-19.55Q97.98-19 97.85-18.55 97.73-18.1 97.53-18.05L97.53-18.05Q96.18-17.65 94.33-17.4L94.33-17.4Q92.13-17 91.08-16.7L91.08-16.7Q90.53-16.55 89.98-15.95 89.43-15.35 89.38-14.85L89.38-14.85Q89.28-12.4 89.23-9.85L89.23-9.85Q89.18-7.9 89.38-5.95L89.38-5.95Q89.53-4.3 90.03-3.58 90.53-2.85 91.53-2.85L91.53-2.85Q92.33-2.85 93.83-3.4L93.83-3.4Q94.63-3.75 95.23-3.75L95.23-3.75Q96.18-3.75 96.58-2.7L96.58-2.7Q96.73-2.35 96.73-2L96.73-2Q96.73-1.35 96.25-0.95 95.78-0.55 94.98-0.25L94.98-0.25Q93.48 0.3 91.93 0.35L91.93 0.35Q89.83 0.35 87.98-0.68 86.13-1.7 85.05-3.55 83.98-5.4 84.13-7.8L84.13-7.8Q84.18-8.75 84.18-10.8L84.18-10.8Q84.18-14.05 83.93-17.4L83.93-17.4Q83.88-17.7 83.58-17.82 83.28-17.95 82.58-18.1L82.58-18.1Q81.43-18.3 81.08-18.65L81.08-18.65ZM128.55-22.45Q128.55-22.2 128.42-21.28 128.3-20.35 128.3-19.8L128.3-19.8Q128.3-19.4 128.4-19.3L128.4-19.3 129.85-20.7Q130.65-21.6 131.25-22.1L131.25-22.1Q132.55-23.3 133.9-23.3L133.9-23.3Q135-23.3 135.55-22.45L135.55-22.45Q135.85-21.95 135.85-21.3L135.85-21.3Q135.85-20.8 135.65-20.55L135.65-20.55Q134.9-19.4 132.95-17.1L132.95-17.1Q132.2-16.3 132.2-15.55L132.2-15.55Q132.2-14.85 132.9-14L132.9-14Q133.5-13.3 134.6-11.9L134.6-11.9Q136.75-9.15 138.42-7.48 140.1-5.8 142.3-4.7L142.3-4.7Q142.55-4.6 142.7-4.23 142.85-3.85 142.8-3.65L142.8-3.65Q142.75-3.4 142.4-3.15 142.05-2.9 141.8-2.95L141.8-2.95Q141.05-3.15 140.55-3.2L140.55-3.2Q137.95-3.7 136.85-4.45L136.85-4.45Q135.05-5.7 131.75-8.8L131.75-8.8Q129.75-10.65 129.7-10.7L129.7-10.7 128.8-11.55Q127.75-12.6 127.75-12.6L127.75-12.6Q127.65-12.35 127.65-11.85L127.65-11.85Q127.65-11.4 127.72-10.88 127.8-10.35 127.75-10.15L127.75-10.15Q127.45-4.55 127.35-1.95L127.35-1.95Q127.25-0.3 126.57 0.55 125.9 1.4 124.7 1.2L124.7 1.2Q124.3 1.15 123.82 0.8 123.35 0.45 123.25 0.1L123.25 0.1Q122.7-2.1 122.7-4.2L122.7-4.2Q122.7-10.25 122.85-16.25L122.85-16.25 123.35-32.55Q123.4-35.2 126.1-35.2L126.1-35.2Q127.95-35.2 128.8-34.5 129.65-33.8 129.55-32.3L129.55-32.3 129.05-27.2Q128.85-25.45 128.55-22.45L128.55-22.45ZM160.61-3.35Q159.06-2.4 157.06-2.4L157.06-2.4Q154.86-2.4 152.83-3.53 150.81-4.65 149.61-6.75 148.41-8.85 148.61-11.55L148.61-11.55 148.86-12.75Q149.16-14.55 149.36-15.4L149.36-15.4Q149.81-17.25 151.16-18 152.51-18.75 154.76-19.2L154.76-19.2Q156.21-19.5 157.61-19.5L157.61-19.5Q162.01-19.5 165.01-16.55L165.01-16.55Q166.61-14.95 166.61-12.65L166.61-12.65Q166.61-10.4 164.96-7.8L164.96-7.8Q163.06-4.85 160.61-3.35L160.61-3.35ZM156.41-16.95Q155.61-15 154.71-12.1L154.71-12.1 154.21-10.6 154.56-10.45Q154.56-10.1 154.58-9.38 154.61-8.65 154.76-8.15L154.76-8.15Q155.31-6.6 156.01-6.25L156.01-6.25Q156.31-6.1 156.88-6.4 157.46-6.7 157.91-7.1L157.91-7.1Q158.61-7.7 160.16-9.6L160.16-9.6Q161.31-10.9 161.31-12.7L161.31-12.7Q161.31-14.25 160.43-15.5 159.56-16.75 158.01-17.2L158.01-17.2Q157.86-17.25 157.46-17.25L157.46-17.25Q156.51-17.25 156.41-16.95L156.41-16.95ZM184.12-24.7Q183.97-24.35 183.42-24.05 182.87-23.75 182.62-23.6L182.62-23.6Q182.22-23.75 181.47-24 180.72-24.25 180.32-24.55L180.32-24.55Q179.97-24.8 179.59-25.33 179.22-25.85 178.97-26.1L178.97-26.1Q179.27-26.3 179.67-26.65 180.07-27 180.42-27.2 180.77-27.4 181.07-27.4L181.07-27.4Q182.07-27.4 183.57-26.3L183.57-26.3Q183.87-26.05 184.07-25.53 184.27-25 184.12-24.7L184.12-24.7ZM182.17 16.6Q182.57 15.6 182.87 14L182.87 14 183.07 13Q182.52 10.95 181.47 5.5L181.47 5.5 181.17 3.95Q179.17-6.45 178.02-11.7L178.02-11.7Q177.82-12.7 177.87-13.7L177.87-13.7 177.92-15.45Q177.97-16 177.97-17.15L177.97-17.15Q177.97-18.4 178.69-18.75 179.42-19.1 180.72-19L180.72-19Q181.97-18.95 182.67-18.25 183.37-17.55 183.42-16.45L183.42-16.45 183.52-13.9Q183.72-8.8 184.04-5.23 184.37-1.65 185.42 1.85L185.42 1.85Q186.02 3.85 186.44 6.18 186.87 8.5 186.97 9L186.97 9Q187.57 12 187.82 13.5L187.82 13.5Q188.02 14.35 188.02 15.4L188.02 15.4Q188.02 18.8 185.37 20.7L185.37 20.7Q183.92 21.75 182.02 21.75L182.02 21.75Q179.97 21.75 177.57 20.5L177.57 20.5Q172.72 18 172.42 13.1L172.42 13.1Q172.42 12.75 172.37 12.38 172.32 12 172.32 11.65L172.32 11.65Q172.32 9.95 173.87 9.95L173.87 9.95Q174.47 9.95 174.79 10.35 175.12 10.75 175.34 11.33 175.57 11.9 175.77 12.25L175.77 12.25 176.22 13.15Q177.62 15.95 178.47 17L178.47 17Q179.37 18.25 180.32 18.25L180.32 18.25Q180.87 18.25 181.37 17.82 181.87 17.4 182.17 16.6L182.17 16.6ZM211.38-2.55Q210.93-2.75 210.48-2.75L210.48-2.75Q210.03-2.75 209.7-2.53 209.38-2.3 208.98-1.85L208.98-1.85Q208.38-1.25 207.73-0.85L207.73-0.85Q207.13-0.5 205.53-0.2L205.53-0.2Q204.83-0.1 204.38-0.1L204.38-0.1Q202.28-0.1 200-1.03 197.73-1.95 196.78-3.25L196.78-3.25Q195.78-4.65 195.83-6.25L195.83-6.25Q195.88-8.65 197.83-11.05L197.83-11.05Q199.73-13.35 201.3-14.3 202.88-15.25 205.63-15.5L205.63-15.5Q206.23-15.5 207.35-15.7 208.48-15.9 208.48-16.25L208.48-16.25Q208.48-16.95 207.85-17.53 207.23-18.1 205.33-18.1L205.33-18.1Q204.63-18.1 203.23-18L203.23-18Q201.83-17.9 201.28-17.9L201.28-17.9Q199.58-17.9 198.83-18.45L198.83-18.45Q198.63-18.55 198.63-19.4L198.63-19.4Q198.63-20.9 199.68-21.3L199.68-21.3Q201.83-22.1 204.13-22.15L204.13-22.15Q207.03-22.15 209.5-20.88 211.98-19.6 213.13-17.7L213.13-17.7Q214.28-15.8 214.63-12.45L214.63-12.45Q215.03-8.7 215.03-2.9L215.03-2.9Q215.03-1.3 214.58-1.05L214.58-1.05Q214.18-0.8 213.83-0.8L213.83-0.8Q213.38-0.8 213-1.07 212.63-1.35 212.18-1.85L212.18-1.85Q211.73-2.4 211.38-2.55L211.38-2.55ZM203.48-3.15Q205.83-3.85 208.08-5.4L208.08-5.4Q208.58-5.75 208.98-6.3 209.38-6.85 209.48-7L209.48-7Q209.58-7.15 209.65-7.88 209.73-8.6 209.68-9.05L209.68-9.05Q209.63-9.2 209.5-9.85 209.38-10.5 209.13-11L209.13-11Q208.88-11.4 208.33-11.75 207.78-12.1 207.33-12.05L207.33-12.05Q206.38-12 205.28-11.35 204.18-10.7 203.23-9.6L203.23-9.6Q202.28-8.45 201.75-7.28 201.23-6.1 201.23-5.1L201.23-5.1Q201.33-3.75 201.98-3.3L201.98-3.3Q202.33-3.05 202.83-3.05L202.83-3.05Q203.23-3.05 203.48-3.15L203.48-3.15ZM246.15-23.3Q246.05-23 245.42-22.65 244.8-22.3 244.4-22L244.4-22 243-22.75Q240.95-23.85 240.2-24.5L240.2-24.5Q239.8-24.8 239.8-25.25L239.8-25.25Q239.8-25.55 240.02-25.78 240.25-26 240.7-26L240.7-26Q242.65-26 245.45-25L245.45-25Q245.75-24.95 246-24.33 246.25-23.7 246.15-23.3L246.15-23.3ZM241.65-14Q241.8-14.65 241.85-14.95 241.9-15.25 241.9-15.6L241.9-15.6Q241.9-16.3 242.32-16.7 242.75-17.1 243.95-17.1L243.95-17.1Q245.35-17.1 246.42-16.23 247.5-15.35 247.75-13.95L247.75-13.95Q247.9-13.25 247.95-12.4 248-11.55 248-11.3L248-11.3 248.7-2.75Q248.85-1.4 248.32-0.68 247.8 0.05 246.35 0.05L246.35 0.05Q245.1 0.05 244.22-0.65 243.35-1.35 243.15-2.45L243.15-2.45 241.85-13.05 241.65-14ZM279.06-24.65Q278.86-26.45 279.59-27.93 280.31-29.4 281.66-30.8L281.66-30.8 284.71-31.05Q285.41-31.15 285.56-31.15L285.56-31.15Q286.31-31.15 287.46-29.3L287.46-29.3Q287.56-29 287.66-28.58 287.76-28.15 287.96-27.9L287.96-27.9 293.76-19.85Q295.06-18.2 296.31-16.4L296.31-16.4 297.16-19.15Q298.76-24.4 300.09-27.68 301.41-30.95 303.56-33.9L303.56-33.9 305.96-33.55Q306.91-32.8 306.61-31.55L306.61-31.55Q306.16-29.75 305.66-28.85L305.66-28.85Q304.46-25.8 303.66-22.68 302.86-19.55 301.86-14.8L301.86-14.8Q301.71-14.15 301.46-12.85L301.46-12.85Q301.06-10.85 299.91-9.88 298.76-8.9 296.76-8.8L296.76-8.8Q294.76-8.7 293.31-10.45L293.31-10.45Q291.81-12.25 289.56-15.3L289.56-15.3 288.56-16.65Q287.21-18.45 284.46-21.95L284.46-21.95 284.01-19.8Q283.26-16.2 283.11-14.15L283.11-14.15 282.81-8.1Q282.76-7.1 282.71-5.58 282.66-4.05 282.51-2L282.51-2Q282.46-0.5 281.49 0.6 280.51 1.7 279.06 2.1L279.06 2.1Q278.31 2.3 277.24 1.73 276.16 1.15 275.96 0.4L275.96 0.4Q275.61-0.9 275.61-1.9L275.61-1.9Q275.61-2.8 275.86-3.5L275.86-3.5Q276.31-4.7 276.46-7.3L276.46-7.3Q276.56-8.9 276.71-9.7L276.71-9.7Q277.36-14.3 278.71-22.4L278.71-22.4Q278.76-22.8 278.94-23.48 279.11-24.15 279.06-24.65L279.06-24.65ZM325.07-3.35Q323.52-2.4 321.52-2.4L321.52-2.4Q319.32-2.4 317.3-3.53 315.27-4.65 314.07-6.75 312.87-8.85 313.07-11.55L313.07-11.55 313.32-12.75Q313.62-14.55 313.82-15.4L313.82-15.4Q314.27-17.25 315.62-18 316.97-18.75 319.22-19.2L319.22-19.2Q320.67-19.5 322.07-19.5L322.07-19.5Q326.47-19.5 329.47-16.55L329.47-16.55Q331.07-14.95 331.07-12.65L331.07-12.65Q331.07-10.4 329.42-7.8L329.42-7.8Q327.52-4.85 325.07-3.35L325.07-3.35ZM320.87-16.95Q320.07-15 319.17-12.1L319.17-12.1 318.67-10.6 319.02-10.45Q319.02-10.1 319.05-9.38 319.07-8.65 319.22-8.15L319.22-8.15Q319.77-6.6 320.47-6.25L320.47-6.25Q320.77-6.1 321.35-6.4 321.92-6.7 322.37-7.1L322.37-7.1Q323.07-7.7 324.62-9.6L324.62-9.6Q325.77-10.9 325.77-12.7L325.77-12.7Q325.77-14.25 324.9-15.5 324.02-16.75 322.47-17.2L322.47-17.2Q322.32-17.25 321.92-17.25L321.92-17.25Q320.97-17.25 320.87-16.95L320.87-16.95ZM345.88-21.2Q346.03-20.7 345.93-19.65L345.93-19.65 345.33-13.75Q345.58-13.95 346.08-15.18 346.58-16.4 347.03-17.18 347.48-17.95 347.73-18.2L347.73-18.2Q350.08-20.45 353.03-20.9 355.98-21.35 359.53-21.3L359.53-21.3Q359.88-21.3 360.31-21.03 360.73-20.75 360.73-20.58 360.73-20.4 360.43-20.03 360.13-19.65 359.88-19.55L359.88-19.55Q356.88-18.55 354.61-17.25 352.33-15.95 350.68-13.85L350.68-13.85Q346.78-8.9 346.18-3.65L346.18-3.65Q346.03-2.25 345.33-1.78 344.63-1.3 343.38-1.3L343.38-1.3Q341.98-1.3 340.88-2.5 339.78-3.7 339.78-5.15L339.78-5.15Q339.83-10.45 339.83-21.05L339.83-21.05Q339.83-22.5 340.48-23.08 341.13-23.65 342.83-23.65L342.83-23.65Q344.08-23.65 344.96-22.95 345.83-22.25 345.88-21.2L345.88-21.2ZM373.69-21.2Q373.84-20.7 373.74-19.65L373.74-19.65 373.14-13.75Q373.39-13.95 373.89-15.18 374.39-16.4 374.84-17.18 375.29-17.95 375.54-18.2L375.54-18.2Q377.89-20.45 380.84-20.9 383.79-21.35 387.34-21.3L387.34-21.3Q387.69-21.3 388.12-21.03 388.54-20.75 388.54-20.58 388.54-20.4 388.24-20.03 387.94-19.65 387.69-19.55L387.69-19.55Q384.69-18.55 382.42-17.25 380.14-15.95 378.49-13.85L378.49-13.85Q374.59-8.9 373.99-3.65L373.99-3.65Q373.84-2.25 373.14-1.78 372.44-1.3 371.19-1.3L371.19-1.3Q369.79-1.3 368.69-2.5 367.59-3.7 367.59-5.15L367.59-5.15Q367.64-10.45 367.64-21.05L367.64-21.05Q367.64-22.5 368.29-23.08 368.94-23.65 370.64-23.65L370.64-23.65Q371.89-23.65 372.77-22.95 373.64-22.25 373.69-21.2L373.69-21.2ZM400.65-2.3Q401.65-3.5 402.1-4.2L402.1-4.2Q402.65-4.95 403.25-4.95L403.25-4.95Q403.85-4.95 404.15-4.2L404.15-4.2Q404.85-2.2 404.85-1.05L404.85-1.05Q404.85-0.55 404.8-0.3L404.8-0.3Q404.6 0.7 403.68 1.1 402.75 1.5 401.5 1.4L401.5 1.4Q401.05 1.4 399.98 1.4 398.9 1.4 398.13 1.1 397.35 0.8 396.75 0.1L396.75 0.1Q395.45-1.45 395.45-2.9L395.45-2.9Q395.45-14.6 395.35-20.5L395.35-20.5 395.3-29.3Q395.3-31.05 394.95-32.5L394.95-32.5Q394.9-32.75 394.9-33.1L394.9-33.1Q394.9-34.95 397.4-34.95L397.4-34.95Q399.05-34.95 400.18-33.88 401.3-32.8 401.2-31.05L401.2-31.05Q401.05-28.4 400.8-23.1L400.8-23.1 400.5-17.1Q400.1-8.6 399.95-4.35L399.95-4.35Q399.9-3.85 400-3.25 400.1-2.65 400.15-2.5L400.15-2.5 400.65-2.3ZM427.96-2.55Q427.51-2.75 427.06-2.75L427.06-2.75Q426.61-2.75 426.29-2.53 425.96-2.3 425.56-1.85L425.56-1.85Q424.96-1.25 424.31-0.85L424.31-0.85Q423.71-0.5 422.11-0.2L422.11-0.2Q421.41-0.1 420.96-0.1L420.96-0.1Q418.86-0.1 416.59-1.03 414.31-1.95 413.36-3.25L413.36-3.25Q412.36-4.65 412.41-6.25L412.41-6.25Q412.46-8.65 414.41-11.05L414.41-11.05Q416.31-13.35 417.89-14.3 419.46-15.25 422.21-15.5L422.21-15.5Q422.81-15.5 423.94-15.7 425.06-15.9 425.06-16.25L425.06-16.25Q425.06-16.95 424.44-17.53 423.81-18.1 421.91-18.1L421.91-18.1Q421.21-18.1 419.81-18L419.81-18Q418.41-17.9 417.86-17.9L417.86-17.9Q416.16-17.9 415.41-18.45L415.41-18.45Q415.21-18.55 415.21-19.4L415.21-19.4Q415.21-20.9 416.26-21.3L416.26-21.3Q418.41-22.1 420.71-22.15L420.71-22.15Q423.61-22.15 426.09-20.88 428.56-19.6 429.71-17.7L429.71-17.7Q430.86-15.8 431.21-12.45L431.21-12.45Q431.61-8.7 431.61-2.9L431.61-2.9Q431.61-1.3 431.16-1.05L431.16-1.05Q430.76-0.8 430.41-0.8L430.41-0.8Q429.96-0.8 429.59-1.07 429.21-1.35 428.76-1.85L428.76-1.85Q428.31-2.4 427.96-2.55L427.96-2.55ZM420.06-3.15Q422.41-3.85 424.66-5.4L424.66-5.4Q425.16-5.75 425.56-6.3 425.96-6.85 426.06-7L426.06-7Q426.16-7.15 426.24-7.88 426.31-8.6 426.26-9.05L426.26-9.05Q426.21-9.2 426.09-9.85 425.96-10.5 425.71-11L425.71-11Q425.46-11.4 424.91-11.75 424.36-12.1 423.91-12.05L423.91-12.05Q422.96-12 421.86-11.35 420.76-10.7 419.81-9.6L419.81-9.6Q418.86-8.45 418.34-7.28 417.81-6.1 417.81-5.1L417.81-5.1Q417.91-3.75 418.56-3.3L418.56-3.3Q418.91-3.05 419.41-3.05L419.41-3.05Q419.81-3.05 420.06-3.15L420.06-3.15ZM449.22-18.85Q449.22-18.55 449.12-18.07 449.02-17.6 449.07-17.45L449.07-17.45Q452.52-18.2 454.92-18.2L454.92-18.2Q458.67-18.2 460.57-14.6L460.57-14.6Q462.12-11.55 462.12-7.85L462.12-7.85Q462.12-6.9 461.92-5.1L461.92-5.1Q461.77-3.9 460.97-3.18 460.17-2.45 459.07-2.45L459.07-2.45Q457.92-2.45 457.45-2.88 456.97-3.3 456.9-3.85 456.82-4.4 456.82-5.6L456.82-5.6 456.77-6.65Q456.67-9.65 456.37-11.85L456.37-11.85Q456.22-12.75 455.7-13.13 455.17-13.5 454.32-13.5L454.32-13.5Q453.52-13.5 452.42-13.25L452.42-13.25Q450.72-12.8 450.15-12.55 449.57-12.3 448.47-11.5L448.47-11.5Q448.12-11.25 447.97-10.5 447.82-9.75 447.82-9.65L447.82-9.65Q447.17-6.45 446.42-2L446.42-2Q446.37-1.8 446.22-1.05 446.07-0.3 445.65 0.03 445.22 0.35 444.42 0.25L444.42 0.25Q441.27-0.15 441.22-2.4L441.22-2.4Q441.17-5.3 441.67-9.25L441.67-9.25Q442.02-12.1 442.32-13.85L442.32-13.85Q442.42-14.65 442.6-15.8 442.77-16.95 442.92-18.45L442.92-18.45Q443.07-19.6 443.22-20.15 443.37-20.7 443.92-21.08 444.47-21.45 445.62-21.45L445.62-21.45Q447.07-21.45 448.02-20.8 448.97-20.15 449.22-18.95L449.22-18.95 449.22-18.85ZM490.38-5.85Q490.48-5 491.13-3.65L491.13-3.65Q491.23-3.4 491.36-3.1 491.48-2.8 491.63-2.4L491.63-2.4Q489.93-1.45 488.93-1.45L488.93-1.45Q488.18-1.45 487.53-1.93 486.88-2.4 486.08-3.45L486.08-3.45Q485.48-4.15 485.08-4.15L485.08-4.15Q484.68-4.15 484.23-3.5L484.23-3.5Q483.23-2 481.76-1.25 480.28-0.5 478.63-0.5L478.63-0.5Q476.78-0.5 475.06-1.38 473.33-2.25 472.38-3.75L472.38-3.75Q471.38-5.3 471.38-8.35L471.38-8.35Q471.38-10.55 471.98-12.8 472.58-15.05 473.68-16.5L473.68-16.5Q474.88-18.15 476.53-19.13 478.18-20.1 480.18-20.1L480.18-20.1Q480.83-20.1 481.18-20.05L481.18-20.05Q481.33-20 481.63-20L481.63-20Q482.78-20 482.78-21.1L482.78-21.1 482.73-21.5Q482.03-27.25 481.48-29.95L481.48-29.95Q481.43-30.2 481.33-30.75 481.23-31.3 481.23-31.65L481.23-31.65Q481.23-32.35 481.53-32.88 481.83-33.4 482.58-33.75L482.58-33.75Q482.88-33.9 483.28-33.9L483.28-33.9Q484.33-33.9 485.48-33.23 486.63-32.55 486.83-31.7L486.83-31.7Q487.58-28.6 488.23-23.65L488.23-23.65 489.13-16.05Q489.93-9.25 490.38-5.85L490.38-5.85ZM477.03-12.1Q476.18-9.65 476.18-7.6L476.18-7.6Q476.18-4.75 478.18-3.4L478.18-3.4Q478.98-3.85 479.46-4.42 479.93-5 480.58-6.1L480.58-6.1 481.13-7.05Q482.28-8.7 482.66-10.75 483.03-12.8 483.13-15.95L483.13-15.95Q483.18-16.4 482.96-16.98 482.73-17.55 482.48-17.6L482.48-17.6Q482.08-17.7 481.13-17.38 480.18-17.05 479.93-16.7L479.93-16.7Q478.78-15.35 478.11-14.35 477.43-13.35 477.03-12.1L477.03-12.1Z" opacity="1" transform="matrix(1,0,0,1,0,0)" fill="#000000" class="slogan-text-1" data-fill-palette-color="secondary" id="text-1"></path></svg></g></svg></g></svg></g></svg></g><g transform="matrix(1,0,0,1,36.672,0)"><svg viewBox="0 0 118.656 71.06176000000004" height="71.06176000000004" width="118.656"><g><svg xmlns="http://www.w3.org/2000/svg" xmlns:xlink="http://www.w3.org/1999/xlink" version="1.1" x="0" y="0" viewBox="5 23.1 89.99999999999999 53.90000000000001" enable-background="new 0 0 100 100" xml:space="preserve" height="71.06176000000004" width="118.656" class="icon-icon-0" data-fill-palette-color="accent" id="icon-0"><path d="M70.9 29c-0.3-0.3-0.6-0.4-1-0.4h-6.4v-4c0-0.8-0.6-1.5-1.5-1.5h-5.4c-0.8 0-1.5 0.7-1.5 1.5l0 4H33.7c-0.8 0-1.5 0.7-1.5 1.5 0 0.8 0.6 1.5 1.5 1.5h22.8c0.8 0 1.5-0.7 1.5-1.5l0-4h2.5v4c0 0.8 0.6 1.5 1.5 1.5h7.3L90 52.2H50c-0.8 0-1.5 0.7-1.5 1.5v5.4c0 0.8 0.6 1.5 1.5 1.5h36.7v2.5H50c-0.8 0-1.5 0.7-1.5 1.5V70c0 0.8 0.6 1.5 1.5 1.5h36.7V74H13.3v-2.5h31.2c0.8 0 1.5-0.7 1.5-1.5v-5.4c0-0.8-0.6-1.5-1.5-1.5H13.3v-2.5h31.2c0.8 0 1.5-0.7 1.5-1.5v-5.4c0-0.8-0.6-1.5-1.5-1.5H10L28.2 34l15.3 15.3c0.6 0.6 1.5 0.6 2.1 0 0.6-0.6 0.6-1.5 0-2.1L29.3 30.9c-0.6-0.6-1.5-0.6-2.1 0L5.4 52.7c-0.4 0.4-0.5 1-0.3 1.6 0.2 0.5 0.8 0.9 1.3 0.9h36.7v2.5H11.9c-0.8 0-1.5 0.7-1.5 1.5v5.4c0 0.8 0.6 1.5 1.5 1.5h31.2v2.5H11.9c-0.8 0-1.5 0.7-1.5 1.5v5.4c0 0.8 0.6 1.5 1.5 1.5h76.2c0.8 0 1.5-0.7 1.5-1.5V70c0-0.8-0.6-1.5-1.5-1.5H51.5V66h36.7c0.8 0 1.5-0.7 1.5-1.5v-5.4c0-0.8-0.6-1.5-1.5-1.5H51.5v-2.5h42.1c0.6 0 1.1-0.4 1.3-0.9 0.2-0.5 0.1-1.2-0.3-1.6L70.9 29z" fill="#000000" data-fill-palette-color="accent"></path></svg></g></svg></g><g></g></svg></g></svg></g></svg></g></svg></g><defs></defs></svg><rect width="320" height="360" fill="none" stroke="none" visibility="hidden"></rect></g></svg></g></svg>